<svg width="16" height="16" viewBox="0 0 16 16" fill="none" xmlns="http://www.w3.org/2000/svg">
  <!-- Shield background -->
  <path d="M8 1 L14 4 L14 11 C14 13 12 15 8 15 C4 15 2 13 2 11 L2 4 Z" fill="#E5E7EB" stroke="#6B7280" stroke-width="0.5"/>
  
  <!-- Shield border -->
  <path d="M8 1 L14 4 L14 11 C14 13 12 15 8 15 C4 15 2 13 2 11 L2 4 Z" fill="none" stroke="#9CA3AF" stroke-width="0.5"/>
  
  <!-- Left side (red) -->
  <path d="M8 1 L8 15 L2 11 L2 4 Z" fill="#DC2626"/>
  
  <!-- Right side (white) -->
  <path d="M8 1 L8 15 L14 11 L14 4 Z" fill="#FFFFFF"/>
  
  <!-- Simplified zig-zag dividing line -->
  <path d="M8 1 L6 4 L8 7 L6 10 L8 13 L8 15" stroke="#374151" stroke-width="0.5" fill="none"/>
  
  <!-- Key rivets only for small size -->
  <circle cx="8" cy="2" r="0.25" fill="#6B7280"/>
  <circle cx="14" cy="4" r="0.25" fill="#6B7280"/>
  <circle cx="8" cy="14" r="0.25" fill="#6B7280"/>
  <circle cx="2" cy="4" r="0.25" fill="#6B7280"/>
</svg>
