<svg width="128" height="128" viewBox="0 0 128 128" fill="none" xmlns="http://www.w3.org/2000/svg">
  <!-- Shield background -->
  <path d="M64 8 L112 32 L112 88 C112 104 96 120 64 120 C32 120 16 104 16 88 L16 32 Z" fill="#E5E7EB" stroke="#6B7280" stroke-width="2"/>
  
  <!-- Shield border with metallic effect -->
  <path d="M64 8 L112 32 L112 88 C112 104 96 120 64 120 C32 120 16 104 16 88 L16 32 Z" fill="none" stroke="#9CA3AF" stroke-width="4"/>
  
  <!-- Left side (red) -->
  <path d="M64 8 L64 120 L16 88 L16 32 Z" fill="#DC2626"/>
  
  <!-- Right side (white) -->
  <path d="M64 8 L64 120 L112 88 L112 32 Z" fill="#FFFFFF"/>
  
  <!-- Zig-zag dividing line -->
  <path d="M64 8 L48 24 L64 40 L48 56 L64 72 L48 88 L64 104 L64 120" stroke="#374151" stroke-width="3" fill="none"/>
  
  <!-- Shield rivets/studs along the border -->
  <circle cx="64" cy="16" r="2" fill="#6B7280"/>
  <circle cx="96" cy="32" r="2" fill="#6B7280"/>
  <circle cx="112" cy="48" r="2" fill="#6B7280"/>
  <circle cx="112" cy="72" r="2" fill="#6B7280"/>
  <circle cx="96" cy="96" r="2" fill="#6B7280"/>
  <circle cx="64" cy="112" r="2" fill="#6B7280"/>
  <circle cx="32" cy="96" r="2" fill="#6B7280"/>
  <circle cx="16" cy="72" r="2" fill="#6B7280"/>
  <circle cx="16" cy="48" r="2" fill="#6B7280"/>
  <circle cx="32" cy="32" r="2" fill="#6B7280"/>
</svg>
