<svg width="32" height="32" viewBox="0 0 32 32" fill="none" xmlns="http://www.w3.org/2000/svg">
  <!-- Shield background -->
  <path d="M16 2 L28 8 L28 22 C28 26 24 30 16 30 C8 30 4 26 4 22 L4 8 Z" fill="#E5E7EB" stroke="#6B7280" stroke-width="1"/>
  
  <!-- Shield border with metallic effect -->
  <path d="M16 2 L28 8 L28 22 C28 26 24 30 16 30 C8 30 4 26 4 22 L4 8 Z" fill="none" stroke="#9CA3AF" stroke-width="1"/>
  
  <!-- Left side (red) -->
  <path d="M16 2 L16 30 L4 22 L4 8 Z" fill="#DC2626"/>
  
  <!-- Right side (white) -->
  <path d="M16 2 L16 30 L28 22 L28 8 Z" fill="#FFFFFF"/>
  
  <!-- Zig-zag dividing line -->
  <path d="M16 2 L12 6 L16 10 L12 14 L16 18 L12 22 L16 26 L16 30" stroke="#374151" stroke-width="1" fill="none"/>
  
  <!-- Shield rivets/studs along the border -->
  <circle cx="16" cy="4" r="0.5" fill="#6B7280"/>
  <circle cx="24" cy="8" r="0.5" fill="#6B7280"/>
  <circle cx="28" cy="12" r="0.5" fill="#6B7280"/>
  <circle cx="28" cy="18" r="0.5" fill="#6B7280"/>
  <circle cx="24" cy="24" r="0.5" fill="#6B7280"/>
  <circle cx="16" cy="28" r="0.5" fill="#6B7280"/>
  <circle cx="8" cy="24" r="0.5" fill="#6B7280"/>
  <circle cx="4" cy="18" r="0.5" fill="#6B7280"/>
  <circle cx="4" cy="12" r="0.5" fill="#6B7280"/>
  <circle cx="8" cy="8" r="0.5" fill="#6B7280"/>
</svg>
